<svg width="605" height="537" xmlns="http://www.w3.org/2000/svg" xmlns:xlink="http://www.w3.org/1999/xlink" xml:space="preserve" overflow="hidden"><defs><clipPath id="clip0"><rect x="345" y="108" width="605" height="537"/></clipPath><linearGradient x1="462.902" y1="414.701" x2="462.902" y2="602.942" gradientUnits="userSpaceOnUse" spreadMethod="reflect" id="fill1"><stop offset="0" stop-color="#E6B9B8"/><stop offset="0.5" stop-color="#E6B9B8"/><stop offset="0.5" stop-color="#B7CCE4"/><stop offset="1" stop-color="#B7CCE4"/></linearGradient><linearGradient x1="698.203" y1="508.821" x2="886.444" y2="508.821" gradientUnits="userSpaceOnUse" spreadMethod="reflect" id="fill2"><stop offset="0" stop-color="#E6B9B8"/><stop offset="0.5" stop-color="#E6B9B8"/><stop offset="0.5" stop-color="#B7CCE4"/><stop offset="1" stop-color="#B7CCE4"/></linearGradient></defs><g clip-path="url(#clip0)" transform="translate(-345 -108)"><text font-family="Arial,Arial_MSFontService,sans-serif" font-weight="400" font-size="963" transform="matrix(0.285214 0 0 0.285525 365.726 349)">Alpa</text><path d="M557.022 510.199 685.132 510.199 685.132 515.429 557.022 515.429ZM682.516 504.971 698.203 512.814 682.516 520.657Z" transform="matrix(1 0 0 1.00109 12.9364 -7.29798)"/><path d="M368.781 446.074C368.781 428.747 382.828 414.701 400.155 414.701L525.649 414.701C542.975 414.701 557.022 428.747 557.022 446.074L557.022 571.568C557.022 588.895 542.975 602.942 525.649 602.942L400.155 602.942C382.828 602.942 368.781 588.895 368.781 571.568Z" fill="url(#fill1)" fill-rule="evenodd" transform="matrix(1 0 0 1.00109 12.9364 -7.29798)"/><path d="M698.203 446.074C698.203 428.747 712.25 414.701 729.576 414.701L855.07 414.701C872.397 414.701 886.444 428.747 886.444 446.074L886.444 571.568C886.444 588.895 872.397 602.942 855.07 602.942L729.576 602.942C712.25 602.942 698.203 588.895 698.203 571.568Z" fill="url(#fill2)" fill-rule="evenodd" transform="matrix(1 0 0 1.00109 12.9364 -7.29798)"/></g></svg>